<svg width="1200" height="800" viewBox="0 0 1200 800" fill="none" xmlns="http://www.w3.org/2000/svg"><rect width="1200" height="800" rx="64" fill="#0D1B2A"/><path d="M0 565C196 455 374 435 582 511C782 584 968 574 1200 452V800H0V565Z" fill="#1B263B"/><path d="M180 456H957C998 456 1036 479 1055 515L1098 595H126L180 456Z" fill="#778DA9" fill-opacity=".58"/><path d="M255 391H820C887 391 949 427 982 485L1017 546H164L255 391Z" stroke="white" stroke-opacity=".38" stroke-width="18"/><circle cx="312" cy="600" r="82" fill="#0D1B2A" stroke="white" stroke-opacity=".7" stroke-width="16"/><circle cx="888" cy="600" r="82" fill="#0D1B2A" stroke="white" stroke-opacity=".7" stroke-width="16"/><path d="M338 391L407 267H711L801 391" stroke="#778DA9" stroke-width="22" stroke-linecap="round"/><circle cx="990" cy="190" r="144" fill="#778DA9" fill-opacity=".12"/><circle cx="170" cy="172" r="96" fill="white" fill-opacity=".06"/></svg>
